#!OML:ASF X:\für Bonn\!DataBase\2005_08_11_Bastian_Final\c3d\Bastian.ASF
:FULLY-SPECIFIED
:DEGREES
126
root -2.35704 16.8982 6.59311 141.941 -23.095 -167.188
lowerback 44.5255 -7.82268 1.17268
upperback 15.1157 -15.8088 3.05487
thorax -2.44752 -10.7543 8.62931
lowerneck -13.7156 -6.4415 -3.41636
upperneck -8.33988 -6.51178 14.8923
head 0.429512 -2.43472 4.77807
rclavicle -2.74323e-014 7.99114e-014
rhumerus -35.3366 38.6099 -92.687
rradius 45.2224
rwrist -22.9457
rhand -31.6473 10.7056
rfingers 7.12502
rthumb -4.9082 -19.2176
lclavicle -2.74323e-014 7.99114e-014
lhumerus 46.7841 -23.0649 78.0867
lradius 103.873
lwrist -26.581
lhand -61.2686 -12.5228
lfingers 7.12502
lthumb -33.3587 14.401
rfemur -79.3921 -14.4931 32.5794
rtibia 132.961
rfoot -1.67509 -3.19133
rtoes -4.34384
lfemur 19.8789 -3.16342 -12.5135
ltibia 32.9447
lfoot -11.056 -10.8282
ltoes -1.16782
127
root -2.35271 16.9286 6.59777 142.497 -22.8399 -167.252
lowerback 43.7937 -7.80992 1.20047
upperback 15.0441 -15.6565 2.98814
thorax -2.38785 -10.6091 8.41301
lowerneck -13.7905 -6.4715 -3.30111
upperneck -8.29322 -6.57507 14.7827
head 0.449948 -2.46576 4.71982
rclavicle -1.2921e-014 1.63003e-014
rhumerus -35.6392 38.6475 -92.8723
rradius 45.0436
rwrist -23.3794
rhand -31.6941 10.4494
rfingers 7.12502
rthumb -4.95337 -19.4727
lclavicle -1.2921e-014 1.63003e-014
lhumerus 46.3124 -22.9737 77.8914
lradius 102.712
lwrist -26.7726
lhand -61.0302 -11.5934
lfingers 7.12502
lthumb -33.132 15.3789
rfemur -77.548 -14.6684 32.0333
rtibia 132.332
rfoot -1.93994 -3.1406
rtoes -4.28291
lfemur 19.6723 -3.17806 -12.5534
ltibia 32.3746
lfoot -10.875 -10.4122
ltoes -1.74995
128
root -2.34874 16.9658 6.60191 143.094 -22.5823 -167.323
lowerback 43.0129 -7.78854 1.19617
upperback 14.9545 -15.5002 2.95447
thorax -2.31632 -10.4632 8.23964
lowerneck -13.8487 -6.49984 -3.26403
upperneck -8.2486 -6.62804 14.6925
head 0.470299 -2.49152 4.68126
rclavicle -6.55989e-015 -8.74653e-015
rhumerus -35.9671 38.7277 -93.0042
rradius 44.8914
rwrist -23.8867
rhand -31.7142 10.2753
rfingers 7.12502
rthumb -4.97273 -19.6463
lclavicle -6.55989e-015 -8.74653e-015
lhumerus 45.799 -22.8545 77.7111
lradius 101.553
lwrist -26.8768
lhand -60.6981 -10.6412
lfingers 7.12502
lthumb -32.8162 16.3976
rfemur -75.6577 -14.7849 31.4732
rtibia 131.607
rfoot -2.14318 -3.10192
rtoes -4.5677
lfemur 19.4911 -3.18694 -12.5903
ltibia 31.6795
lfoot -10.6066 -9.98629
ltoes -2.1779
129
root -2.34436 17.0092 6.60544 143.683 -22.3144 -167.407
lowerback 42.2035 -7.74071 1.17428
upperback 14.8822 -15.3258 2.92158
thorax -2.20993 -10.3137 8.06106
lowerneck -13.9088 -6.52709 -3.21868
upperneck -8.21324 -6.67707 14.6101
head 0.487918 -2.51473 4.64408
rclavicle -4.31363e-014 5.36719e-014
rhumerus -36.2426 38.7871 -93.1309
rradius 44.6853
rwrist -24.4285
rhand -31.73 10.0875
rfingers 7.12502
rthumb -4.98801 -19.8338
lclavicle -4.31363e-014 5.36719e-014
lhumerus 45.2453 -22.778 77.4745
lradius 100.414
lwrist -26.9221
lhand -60.3209 -9.68624
lfingers 7.12502
lthumb -32.4573 17.4269
rfemur -73.6415 -14.8295 30.8922
rtibia 130.76
rfoot -2.33624 -3.08466
rtoes -5.12723
lfemur 19.3881 -3.17186 -12.618
ltibia 30.8567
lfoot -10.2621 -9.58793
ltoes -2.53397
130
root -2.33978 17.0576 6.60795 144.301 -22.0447 -167.474
lowerback 41.3344 -7.71032 1.17513
upperback 14.8025 -15.1541 2.86865
thorax -2.09637 -10.1579 7.84512
lowerneck -13.9534 -6.55431 -3.0968
upperneck -8.14638 -6.74505 14.4827
head 0.508535 -2.55124 4.57926
rclavicle -3.97569e-015 -2.38542e-015
rhumerus -36.5497 38.808 -93.3111
rradius 44.4928
rwrist -24.9513
rhand -31.7783 9.9194
rfingers 7.12502
rthumb -5.03462 -20.0008
lclavicle -3.97569e-015 -2.38542e-015
lhumerus 44.6419 -22.7176 77.1495
lradius 99.2838
lwrist -26.8553
lhand -59.9443 -8.76043
lfingers 7.12502
lthumb -32.0989 18.4256
rfemur -71.606 -14.8129 30.3433
rtibia 129.808
rfoot -2.45552 -3.09499
rtoes -5.63017
lfemur 19.3061 -3.16044 -12.6211
ltibia 29.9027
lfoot -9.86067 -9.19354
ltoes -2.83493
131
root -2.33618 17.1068 6.60883 144.907 -21.7619 -167.548
lowerback 40.4632 -7.66844 1.15252
upperback 14.72 -14.9828 2.83477
thorax -1.96824 -10.0078 7.65896
lowerneck -13.9955 -6.57041 -3.02462
upperneck -8.08408 -6.79159 14.3591
head 0.527665 -2.57668 4.52521
rclavicle 4.69132e-014 -4.29375e-014
rhumerus -36.8082 38.8266 -93.4577
rradius 44.2896
rwrist -25.5015
rhand -31.7914 9.74805
rfingers 7.12502
rthumb -5.04734 -20.1718
lclavicle 4.69132e-014 -4.29375e-014
lhumerus 44.0442 -22.6703 76.7173
lradius 98.0962
lwrist -26.6669
lhand -59.6465 -8.00041
lfingers 7.12502
lthumb -31.8152 19.2424
rfemur -69.5025 -14.7212 29.7871
rtibia 128.764
rfoot -2.41575 -3.12627
rtoes -5.52509
lfemur 19.3001 -3.16607 -12.6393
ltibia 28.8672
lfoot -9.41404 -8.77119
ltoes -3.11269
132
root -2.33242 17.1543 6.60646 145.531 -21.4966 -167.635
lowerback 39.558 -7.61804 1.08798
upperback 14.6324 -14.8128 2.80599
thorax -1.81947 -9.85965 7.49355
lowerneck -14.0144 -6.5659 -2.90076
upperneck -8.03309 -6.8177 14.1823
head 0.533198 -2.59609 4.44845
rclavicle 3.598e-014 1.11319e-014
rhumerus -37.0526 38.8699 -93.6125
rradius 44.045
rwrist -26.063
rhand -31.8541 9.59532
rfingers 7.12502
rthumb -5.10782 -20.3231
lclavicle 3.598e-014 1.11319e-014
lhumerus 43.4772 -22.6202 76.1658
lradius 96.8378
lwrist -26.3571
lhand -59.4044 -7.27525
lfingers 7.12502
lthumb -31.5846 20.0131
rfemur -67.4106 -14.5813 29.236
rtibia 127.647
rfoot -2.35143 -3.1512
rtoes -5.63809
lfemur 19.3005 -3.15052 -12.6527
ltibia 27.8068
lfoot -8.94729 -8.38758
ltoes -3.13398
133
root -2.32936 17.1999 6.60076 146.154 -21.1814 -167.704
lowerback 38.5983 -7.56489 1.08252
upperback 14.552 -14.6172 2.75882
thorax -1.65384 -9.69426 7.26445
lowerneck -14.025 -6.58035 -2.79292
upperneck -7.94252 -6.8728 14.0637
head 0.555337 -2.62808 4.3898
rclavicle -9.6013e-014 1.43125e-013
rhumerus -37.3089 38.8225 -93.8127
rradius 43.7954
rwrist -26.6368
rhand -31.9073 9.50032
rfingers 7.12502
rthumb -5.15918 -20.4169
lclavicle -9.6013e-014 1.43125e-013
lhumerus 42.8992 -22.681 75.5115
lradius 95.5429
lwrist -25.8613
lhand -59.1943 -6.96557
lfingers 7.12502
lthumb -31.3845 20.3619
rfemur -65.2605 -14.3444 28.7585
rtibia 126.452
rfoot -2.34944 -3.25752
rtoes -5.79799
lfemur 19.2914 -3.02877 -12.5617
ltibia 26.7846
lfoot -8.49671 -8.09802
ltoes -2.93173
134
root -2.32657 17.2403 6.59114 146.774 -20.9005 -167.776
lowerback 37.5379 -7.51362 1.02861
upperback 14.5603 -14.4417 2.72026
thorax -1.48878 -9.53988 7.07846
lowerneck -14.0477 -6.58069 -2.66954
upperneck -7.84014 -6.91738 13.8666
head 0.576972 -2.65756 4.30511
rclavicle 3.47873e-014 -8.07066e-014
rhumerus -37.6032 38.885 -94.0082
rradius 43.6182
rwrist -27.3052
rhand -32.0076 9.34635
rfingers 7.12502
rthumb -5.2561 -20.5685
lclavicle 3.47873e-014 -8.07066e-014
lhumerus 42.2915 -22.772 74.8259
lradius 94.1978
lwrist -25.2799
lhand -59.0052 -6.85459
lfingers 7.12502
lthumb -31.2043 20.5077
rfemur -63.0484 -14.1147 28.2799
rtibia 125.204
rfoot -2.40356 -3.38857
rtoes -6.10407
lfemur 19.2447 -2.84968 -12.4548
ltibia 25.8395
lfoot -8.10089 -7.90605
ltoes -3.11146
135
root -2.32395 17.2743 6.57748 147.421 -20.6152 -167.878
lowerback 36.5256 -7.45491 0.96252
upperback 14.4705 -14.2581 2.68758
thorax -1.28592 -9.38405 6.8904
lowerneck -14.0871 -6.57947 -2.56584
upperneck -7.71146 -6.95931 13.7059
head 0.611497 -2.683 4.23421
rclavicle -7.88181e-014 8.62725e-014
rhumerus -37.8378 38.9055 -94.1786
rradius 43.4108
rwrist -27.902
rhand -32.0856 9.16351
rfingers 7.12502
rthumb -5.33143 -20.7494
lclavicle -7.88181e-014 8.62725e-014
lhumerus 41.7005 -22.9405 74.0769
lradius 92.8097
lwrist -24.5895
lhand -58.7772 -6.87134
lfingers 7.12502
lthumb -30.987 20.5326
rfemur -60.8985 -13.8583 27.8261
rtibia 123.863
rfoot -2.36723 -3.55416
rtoes -6.48917
lfemur 19.483 -2.60223 -12.3395
ltibia 24.2478
lfoot -7.32484 -7.71387
ltoes -3.02235
136
root -2.3213 17.3058 6.56133 148.074 -20.3247 -167.97
lowerback 35.4918 -7.41094 0.925062
upperback 14.3666 -14.0765 2.63933
thorax -1.08841 -9.22335 6.67276
lowerneck -14.1029 -6.57689 -2.41283
upperneck -7.57793 -7.00976 13.4996
head 0.640009 -2.71659 4.14143
rclavicle 5.65542e-014 4.77083e-015
rhumerus -38.0834 38.8866 -94.3977
rradius 43.1937
rwrist -28.4755
rhand -32.1801 8.94162
rfingers 7.12502
rthumb -5.42267 -20.969
lclavicle 5.65542e-014 4.77083e-015
lhumerus 41.081 -23.2127 73.2494
lradius 91.3939
lwrist -23.7654
lhand -58.459 -7.04708
lfingers 7.12502
lthumb -30.6836 20.4142
rfemur -58.7386 -13.5967 27.4222
rtibia 122.446
rfoot -2.31545 -3.7713
rtoes -6.87983
lfemur 19.6752 -2.34459 -12.2194
ltibia 22.7337
lfoot -6.61152 -7.51881
ltoes -3.28539
137
root -2.32013 17.4385 6.55434 148.696 -19.9996 -168.042
lowerback 34.4775 -7.36194 0.933176
upperback 14.2389 -13.8688 2.59669
thorax -0.920484 -9.04535 6.43821
lowerneck -14.0785 -6.58474 -2.32143
upperneck -7.42401 -7.07091 13.3407
head 0.674247 -2.75565 4.07276
rclavicle -7.91163e-014 8.15017e-014
rhumerus -38.3473 38.7284 -94.6051
rradius 42.9778
rwrist -28.9411
rhand -32.2421 8.652
rfingers 7.12502
rthumb -5.48249 -21.2571
lclavicle -7.91163e-014 8.15017e-014
lhumerus 40.3931 -23.6286 72.3985
lradius 89.9527
lwrist -22.8937
lhand -58.0816 -7.2429
lfingers 7.12502
lthumb -30.3237 20.2853
rfemur -55.5874 -13.3635 27.0214
rtibia 120.286
rfoot -2.53208 -3.98415
rtoes -6.91778
lfemur 19.9465 -2.02731 -12.0358
ltibia 21.1453
lfoot -5.87195 -7.37627
ltoes -3.37615
